<svg xmlns="http://www.w3.org/2000/svg" xmlns:xlink="http://www.w3.org/1999/xlink" width="45" height="5" viewBox="0 0 153 20" version="1.1"><g id="surface1"><path style=" stroke:none;fill-rule:nonzero;fill:#fffefe;fill-opacity:1;" d="M 10.667969 0.0273438 C 12.40625 0.0273438 14.144531 0.0273438 15.933594 0.0273438 C 15.9375 0.675781 15.9375 0.675781 15.941406 1.335938 C 15.949219 2.753906 15.960938 4.175781 15.972656 5.597656 C 15.976562 6.460938 15.984375 7.320312 15.988281 8.183594 C 15.996094 9.015625 16 9.847656 16.007812 10.679688 C 16.007812 10.996094 16.011719 11.3125 16.011719 11.632812 C 16.015625 12.074219 16.019531 12.519531 16.023438 12.964844 C 16.023438 13.09375 16.023438 13.226562 16.023438 13.363281 C 16.027344 13.484375 16.027344 13.605469 16.027344 13.730469 C 16.03125 13.835938 16.03125 13.9375 16.03125 14.046875 C 16.070312 14.382812 16.140625 14.585938 16.328125 14.867188 C 16.589844 14.996094 16.589844 14.996094 16.855469 15.132812 C 16.855469 16.617188 16.855469 18.105469 16.855469 19.636719 C 15.445312 19.917969 13.847656 20.238281 12.511719 19.503906 C 12.019531 19.144531 11.761719 18.859375 11.605469 18.261719 C 11.601562 18.144531 11.597656 18.03125 11.589844 17.914062 C 11.507812 18.007812 11.421875 18.097656 11.335938 18.195312 C 10.097656 19.4375 8.726562 19.894531 7.007812 19.925781 C 4.902344 19.902344 3.457031 19.167969 1.980469 17.648438 C 0.539062 16.152344 0.347656 13.792969 0.375 11.828125 C 0.433594 9.902344 1.167969 8.046875 2.507812 6.652344 C 3.769531 5.558594 5.28125 5.007812 6.9375 5.027344 C 8.324219 5.140625 9.425781 5.664062 10.40625 6.652344 C 10.40625 6.574219 10.410156 6.496094 10.410156 6.414062 C 10.425781 5.59375 10.4375 4.773438 10.453125 3.949219 C 10.460938 3.644531 10.464844 3.335938 10.472656 3.03125 C 10.480469 2.589844 10.488281 2.152344 10.496094 1.710938 C 10.5 1.574219 10.5 1.433594 10.503906 1.292969 C 10.503906 1.167969 10.507812 1.039062 10.511719 0.90625 C 10.511719 0.796875 10.515625 0.683594 10.515625 0.566406 C 10.539062 0.292969 10.539062 0.292969 10.667969 0.0273438 Z M 6.484375 10.507812 C 5.847656 11.46875 5.710938 12.371094 5.863281 13.5 C 6.207031 14.257812 6.730469 14.941406 7.511719 15.265625 C 8.328125 15.445312 9.003906 15.417969 9.746094 15 C 10.164062 14.699219 10.476562 14.414062 10.625 13.910156 C 10.671875 13.574219 10.695312 13.246094 10.703125 12.90625 C 10.707031 12.785156 10.710938 12.667969 10.714844 12.546875 C 10.71875 11.753906 10.640625 11.183594 10.109375 10.570312 C 9.546875 10.0625 9.046875 9.734375 8.273438 9.660156 C 7.511719 9.722656 6.988281 9.914062 6.484375 10.507812 Z M 6.484375 10.507812 "/><path style=" stroke:none;fill-rule:nonzero;fill:#fffefe;fill-opacity:1;" d="M 30.394531 6.769531 C 31.550781 7.851562 31.984375 9.40625 32.058594 10.957031 C 32.074219 11.457031 32.078125 11.953125 32.082031 12.449219 C 32.085938 12.753906 32.089844 13.0625 32.09375 13.367188 C 32.097656 13.554688 32.101562 13.742188 32.101562 13.933594 C 32.101562 14.414062 32.101562 14.414062 32.253906 14.867188 C 32.472656 14.960938 32.691406 15.050781 32.914062 15.132812 C 32.921875 15.75 32.929688 16.367188 32.933594 16.984375 C 32.9375 17.195312 32.9375 17.40625 32.941406 17.617188 C 32.949219 17.917969 32.949219 18.21875 32.953125 18.519531 C 32.953125 18.613281 32.957031 18.710938 32.957031 18.808594 C 32.957031 19.070312 32.957031 19.070312 32.914062 19.503906 C 31.984375 20.128906 30.453125 20.039062 29.394531 19.828125 C 28.710938 19.617188 28.128906 19.347656 27.753906 18.703125 C 27.625 18.441406 27.5 18.183594 27.386719 17.914062 C 27.320312 17.980469 27.253906 18.046875 27.1875 18.117188 C 25.800781 19.457031 24.335938 19.941406 22.449219 19.917969 C 20.964844 19.859375 19.78125 19.253906 18.757812 18.160156 C 17.839844 16.988281 17.785156 15.640625 17.90625 14.203125 C 18.144531 13.007812 18.945312 12.0625 19.898438 11.34375 C 20.195312 11.164062 20.488281 11.023438 20.804688 10.890625 C 20.980469 10.8125 20.980469 10.8125 21.15625 10.734375 C 22.796875 10.113281 24.792969 10.132812 26.464844 10.628906 C 26.425781 10.140625 26.398438 9.796875 26.117188 9.394531 C 25.4375 8.910156 24.644531 8.800781 23.832031 8.90625 C 22.691406 9.132812 21.699219 9.453125 20.707031 10.074219 C 20.410156 10.230469 20.410156 10.230469 19.882812 10.230469 C 19.660156 9.78125 19.441406 9.332031 19.222656 8.878906 C 19.160156 8.753906 19.097656 8.625 19.035156 8.496094 C 18.972656 8.371094 18.914062 8.25 18.855469 8.121094 C 18.800781 8.007812 18.746094 7.894531 18.6875 7.777344 C 18.558594 7.425781 18.542969 7.160156 18.566406 6.785156 C 22.234375 4.851562 26.886719 3.988281 30.394531 6.769531 Z M 23.171875 13.9375 C 22.933594 14.320312 22.910156 14.46875 22.917969 14.933594 C 23.011719 15.398438 23.011719 15.398438 23.289062 15.71875 C 23.984375 16.070312 24.722656 16.0625 25.460938 15.824219 C 25.941406 15.597656 26.378906 15.371094 26.59375 14.867188 C 26.625 14.46875 26.617188 14.074219 26.59375 13.675781 C 25.472656 13.273438 24.15625 13.136719 23.171875 13.9375 Z M 23.171875 13.9375 "/><path style=" stroke:none;fill-rule:nonzero;fill:#fffefe;fill-opacity:1;" d="M 69.035156 6.007812 C 70.304688 7.261719 70.441406 8.96875 70.457031 10.671875 C 70.460938 11.082031 70.457031 11.492188 70.457031 11.90625 C 70.453125 12.125 70.453125 12.34375 70.453125 12.5625 C 70.453125 13.019531 70.453125 13.476562 70.453125 13.933594 C 70.449219 14.523438 70.449219 15.109375 70.449219 15.695312 C 70.449219 16.148438 70.449219 16.601562 70.449219 17.050781 C 70.449219 17.269531 70.449219 17.484375 70.449219 17.703125 C 70.445312 18.003906 70.445312 18.300781 70.445312 18.601562 C 70.445312 18.773438 70.441406 18.945312 70.441406 19.121094 C 70.425781 19.503906 70.425781 19.503906 70.292969 19.636719 C 69.914062 19.648438 69.535156 19.652344 69.15625 19.648438 C 68.988281 19.648438 68.988281 19.648438 68.8125 19.648438 C 68.449219 19.648438 68.082031 19.644531 67.71875 19.644531 C 67.472656 19.644531 67.226562 19.640625 66.980469 19.640625 C 66.371094 19.640625 65.765625 19.636719 65.160156 19.636719 C 65.160156 19.535156 65.15625 19.4375 65.15625 19.335938 C 65.148438 18.402344 65.136719 17.464844 65.121094 16.53125 C 65.117188 16.046875 65.109375 15.566406 65.105469 15.085938 C 65.101562 14.621094 65.09375 14.15625 65.085938 13.691406 C 65.082031 13.429688 65.082031 13.167969 65.078125 12.90625 C 65.082031 11.519531 65.082031 11.519531 64.609375 10.238281 C 64.210938 10.003906 63.910156 9.972656 63.449219 9.964844 C 62.710938 10.167969 62.210938 10.601562 61.769531 11.21875 C 61.4375 11.902344 61.496094 12.644531 61.503906 13.390625 C 61.503906 13.660156 61.5 13.925781 61.496094 14.191406 C 61.496094 14.5625 61.496094 14.933594 61.5 15.304688 C 61.5 15.867188 61.496094 16.429688 61.492188 16.992188 C 61.492188 17.429688 61.488281 17.867188 61.488281 18.304688 C 61.488281 18.457031 61.488281 18.613281 61.488281 18.777344 C 61.488281 18.914062 61.488281 19.050781 61.492188 19.191406 C 61.472656 19.503906 61.472656 19.503906 61.34375 19.636719 C 60.964844 19.648438 60.585938 19.652344 60.207031 19.648438 C 60.035156 19.648438 60.035156 19.648438 59.863281 19.648438 C 59.496094 19.648438 59.132812 19.644531 58.769531 19.644531 C 58.519531 19.644531 58.273438 19.640625 58.027344 19.640625 C 57.421875 19.640625 56.816406 19.636719 56.210938 19.636719 C 56.207031 17.789062 56.203125 15.945312 56.203125 14.097656 C 56.203125 13.242188 56.203125 12.382812 56.199219 11.527344 C 56.199219 10.699219 56.199219 9.875 56.199219 9.046875 C 56.199219 8.730469 56.195312 8.417969 56.195312 8.101562 C 56.195312 7.660156 56.195312 7.21875 56.195312 6.777344 C 56.195312 6.644531 56.195312 6.511719 56.191406 6.375 C 56.195312 6.257812 56.195312 6.136719 56.195312 6.015625 C 56.195312 5.910156 56.195312 5.804688 56.195312 5.699219 C 56.210938 5.460938 56.210938 5.460938 56.34375 5.328125 C 56.660156 5.3125 56.972656 5.304688 57.289062 5.304688 C 57.433594 5.304688 57.433594 5.304688 57.578125 5.304688 C 57.78125 5.304688 57.984375 5.304688 58.183594 5.304688 C 58.496094 5.304688 58.804688 5.300781 59.113281 5.296875 C 59.308594 5.296875 59.503906 5.296875 59.703125 5.296875 C 59.792969 5.296875 59.886719 5.296875 59.980469 5.292969 C 60.464844 5.296875 60.664062 5.316406 61.078125 5.59375 C 61.148438 5.878906 61.148438 5.878906 61.171875 6.207031 C 61.183594 6.367188 61.183594 6.367188 61.195312 6.535156 C 61.203125 6.660156 61.203125 6.660156 61.210938 6.785156 C 61.332031 6.667969 61.449219 6.550781 61.574219 6.429688 C 63.496094 4.773438 67.003906 4.394531 69.035156 6.007812 Z M 69.035156 6.007812 "/><path style=" stroke:none;fill-rule:nonzero;fill:#fffefe;fill-opacity:1;" d="M 84.246094 6.386719 C 85.027344 7.003906 85.898438 7.730469 86.351562 8.640625 C 86.355469 8.859375 86.355469 9.082031 86.351562 9.300781 C 86.246094 9.332031 86.140625 9.363281 86.035156 9.394531 C 85.5625 9.535156 85.089844 9.675781 84.617188 9.816406 C 84.453125 9.863281 84.289062 9.914062 84.117188 9.960938 C 83.960938 10.007812 83.800781 10.054688 83.640625 10.105469 C 83.421875 10.167969 83.421875 10.167969 83.199219 10.234375 C 82.800781 10.355469 82.800781 10.355469 82.445312 10.507812 C 82.011719 10.675781 81.675781 10.675781 81.21875 10.628906 C 80.945312 10.378906 80.945312 10.378906 80.691406 10.097656 C 80.109375 9.835938 79.613281 9.773438 78.980469 9.832031 C 78.433594 10.046875 78.03125 10.296875 77.664062 10.761719 C 77.265625 11.757812 77.222656 12.976562 77.539062 14.011719 C 77.851562 14.566406 78.152344 14.859375 78.71875 15.132812 C 79.40625 15.316406 79.898438 15.269531 80.558594 15 C 80.667969 14.882812 80.777344 14.765625 80.890625 14.644531 C 80.996094 14.542969 81.105469 14.441406 81.21875 14.335938 C 82 14.382812 82.742188 14.621094 83.488281 14.839844 C 83.671875 14.894531 83.671875 14.894531 83.859375 14.949219 C 84.703125 15.195312 85.535156 15.464844 86.351562 15.792969 C 86.125 17.15625 85.058594 18.050781 84 18.828125 C 82.09375 20.101562 79.441406 20.175781 77.246094 19.734375 C 75.453125 19.261719 73.84375 18.242188 72.839844 16.644531 C 72.566406 16.152344 72.335938 15.660156 72.136719 15.132812 C 72.097656 15.039062 72.058594 14.945312 72.015625 14.851562 C 71.390625 13.164062 71.601562 11.066406 72.269531 9.433594 C 73.121094 7.601562 74.417969 6.375 76.273438 5.589844 C 76.558594 5.488281 76.84375 5.40625 77.136719 5.328125 C 77.222656 5.300781 77.304688 5.273438 77.390625 5.246094 C 79.617188 4.613281 82.359375 5.066406 84.246094 6.386719 Z M 84.246094 6.386719 "/><path style=" stroke:none;fill-rule:nonzero;fill:#fffefe;fill-opacity:1;" d="M 32.78125 5.328125 C 33.488281 5.324219 34.195312 5.324219 34.902344 5.320312 C 35.144531 5.320312 35.386719 5.320312 35.625 5.316406 C 35.972656 5.316406 36.316406 5.316406 36.664062 5.316406 C 36.773438 5.316406 36.878906 5.3125 36.992188 5.3125 C 37.753906 5.3125 37.753906 5.3125 38.046875 5.460938 C 38.144531 5.742188 38.144531 5.742188 38.242188 6.121094 C 38.296875 6.332031 38.296875 6.332031 38.351562 6.550781 C 38.40625 6.78125 38.40625 6.78125 38.464844 7.015625 C 38.503906 7.175781 38.546875 7.335938 38.585938 7.496094 C 38.925781 8.851562 39.253906 10.207031 39.574219 11.566406 C 39.792969 12.496094 40.027344 13.417969 40.285156 14.335938 C 40.328125 14.335938 40.371094 14.335938 40.414062 14.335938 C 40.441406 14.230469 40.46875 14.125 40.496094 14.015625 C 40.738281 13.027344 40.988281 12.035156 41.234375 11.039062 C 41.359375 10.53125 41.484375 10.019531 41.613281 9.511719 C 41.734375 9.019531 41.855469 8.527344 41.976562 8.035156 C 42.023438 7.847656 42.070312 7.660156 42.117188 7.46875 C 42.183594 7.207031 42.25 6.945312 42.3125 6.679688 C 42.351562 6.53125 42.386719 6.382812 42.425781 6.226562 C 42.492188 5.96875 42.570312 5.714844 42.652344 5.460938 C 43.0625 5.253906 43.5 5.3125 43.949219 5.316406 C 44.050781 5.316406 44.152344 5.316406 44.257812 5.316406 C 44.585938 5.316406 44.910156 5.316406 45.234375 5.320312 C 45.457031 5.320312 45.675781 5.320312 45.898438 5.320312 C 46.441406 5.324219 46.980469 5.324219 47.523438 5.328125 C 47.652344 5.734375 47.65625 5.96875 47.515625 6.371094 C 47.480469 6.46875 47.445312 6.570312 47.414062 6.671875 C 47.375 6.777344 47.335938 6.886719 47.296875 6.996094 C 47.257812 7.105469 47.21875 7.21875 47.179688 7.335938 C 47.054688 7.699219 46.925781 8.0625 46.800781 8.425781 C 46.628906 8.917969 46.457031 9.414062 46.285156 9.910156 C 46.246094 10.03125 46.203125 10.152344 46.160156 10.277344 C 45.808594 11.296875 45.476562 12.320312 45.160156 13.351562 C 44.992188 13.898438 44.804688 14.433594 44.601562 14.972656 C 44.328125 15.726562 44.089844 16.496094 43.84375 17.261719 C 43.800781 17.394531 43.757812 17.53125 43.710938 17.667969 C 43.671875 17.789062 43.632812 17.910156 43.59375 18.03125 C 43.394531 18.578125 43.148438 19.105469 42.917969 19.636719 C 41.046875 19.636719 39.179688 19.636719 37.257812 19.636719 C 36.945312 18.855469 36.648438 18.101562 36.386719 17.304688 C 36.359375 17.214844 36.328125 17.125 36.296875 17.03125 C 36.199219 16.734375 36.101562 16.4375 36.007812 16.140625 C 35.9375 15.933594 35.867188 15.722656 35.796875 15.511719 C 35.65625 15.074219 35.511719 14.640625 35.367188 14.203125 C 35.085938 13.347656 34.804688 12.496094 34.523438 11.644531 C 34.386719 11.238281 34.253906 10.835938 34.121094 10.429688 C 33.839844 9.578125 33.558594 8.726562 33.261719 7.878906 C 33.21875 7.75 33.171875 7.617188 33.128906 7.484375 C 33.046875 7.253906 32.96875 7.023438 32.886719 6.792969 C 32.695312 6.242188 32.640625 5.894531 32.78125 5.328125 Z M 32.78125 5.328125 "/><path style=" stroke:none;fill-rule:nonzero;fill:#fffefe;fill-opacity:1;" d="M 106.488281 0.0273438 C 107.140625 0.0273438 107.792969 0.0273438 108.464844 0.0273438 C 108.683594 0.253906 108.613281 0.527344 108.613281 0.832031 C 108.613281 0.980469 108.613281 1.125 108.613281 1.273438 C 108.613281 1.4375 108.613281 1.597656 108.613281 1.765625 C 108.613281 2.023438 108.613281 2.28125 108.617188 2.539062 C 108.617188 2.820312 108.617188 3.097656 108.617188 3.378906 C 108.617188 3.957031 108.621094 4.539062 108.621094 5.121094 C 108.625 5.320312 108.625 5.519531 108.625 5.71875 C 108.625 5.816406 108.625 5.917969 108.625 6.019531 C 108.632812 7.371094 108.636719 8.726562 108.636719 10.078125 C 108.640625 10.992188 108.640625 11.902344 108.648438 12.816406 C 108.648438 13.296875 108.652344 13.78125 108.652344 14.265625 C 108.648438 14.804688 108.652344 15.339844 108.65625 15.878906 C 108.65625 16.039062 108.65625 16.199219 108.652344 16.367188 C 108.65625 16.511719 108.65625 16.660156 108.660156 16.808594 C 108.660156 16.9375 108.660156 17.066406 108.660156 17.195312 C 108.746094 17.609375 108.914062 17.683594 109.253906 17.914062 C 109.308594 18.261719 109.308594 18.261719 109.292969 18.652344 C 109.289062 18.777344 109.289062 18.90625 109.285156 19.039062 C 109.253906 19.371094 109.253906 19.371094 109.121094 19.636719 C 108.46875 19.765625 108.003906 19.851562 107.410156 19.503906 C 106.777344 18.9375 106.582031 18.492188 106.488281 17.648438 C 106.398438 17.765625 106.308594 17.882812 106.21875 18.003906 C 105.347656 19.042969 104.003906 19.707031 102.671875 19.902344 C 100.503906 20.015625 98.945312 19.65625 97.292969 18.1875 C 95.75 16.703125 94.984375 14.789062 94.882812 12.632812 C 94.894531 12.042969 95 11.484375 95.128906 10.910156 C 95.152344 10.804688 95.175781 10.699219 95.199219 10.59375 C 95.636719 8.761719 96.675781 7.234375 98.195312 6.121094 C 99.738281 5.273438 101.386719 5.066406 103.117188 5.417969 C 104.457031 5.882812 105.351562 6.703125 106.359375 7.714844 C 106.402344 5.175781 106.445312 2.640625 106.488281 0.0273438 Z M 98.34375 8.925781 C 97.402344 10.273438 96.984375 11.773438 97.144531 13.410156 C 97.488281 14.96875 98.125 16.242188 99.457031 17.175781 C 100.585938 17.863281 101.695312 18.207031 103.015625 17.964844 C 104.25 17.628906 105.414062 16.824219 106.152344 15.769531 C 106.625 14.914062 106.523438 13.96875 106.527344 13.015625 C 106.53125 12.816406 106.53125 12.613281 106.535156 12.414062 C 106.5625 11 106.503906 9.953125 105.515625 8.839844 C 104.507812 7.882812 103.269531 7.175781 101.867188 7.125 C 100.464844 7.199219 99.265625 7.863281 98.34375 8.925781 Z M 98.34375 8.925781 "/><path style=" stroke:none;fill-rule:nonzero;fill:#fffefe;fill-opacity:1;" d="M 118.234375 5.304688 C 118.34375 5.300781 118.449219 5.300781 118.558594 5.296875 C 120.421875 5.292969 121.820312 5.980469 123.167969 7.269531 C 124.6875 8.835938 125.363281 10.664062 125.359375 12.839844 C 125.300781 14.992188 124.445312 16.679688 122.941406 18.179688 C 121.527344 19.527344 119.820312 19.949219 117.917969 19.917969 C 116.195312 19.855469 114.699219 19.246094 113.433594 18.035156 C 111.804688 16.25 111.253906 14.199219 111.34375 11.816406 C 111.453125 10.105469 112.324219 8.199219 113.597656 7.050781 C 115.015625 5.886719 116.421875 5.304688 118.234375 5.304688 Z M 114.636719 9.101562 C 113.53125 10.574219 113.457031 12.15625 113.597656 13.9375 C 113.886719 15.394531 114.789062 16.523438 115.964844 17.382812 C 116.925781 17.988281 118.074219 18.175781 119.1875 17.992188 C 119.492188 17.902344 119.761719 17.789062 120.046875 17.648438 C 120.15625 17.597656 120.261719 17.546875 120.375 17.492188 C 121.570312 16.847656 122.480469 15.757812 122.941406 14.46875 C 123.40625 12.796875 123.238281 11.273438 122.449219 9.726562 C 121.761719 8.546875 120.894531 7.863281 119.652344 7.316406 C 117.640625 6.796875 115.953125 7.5625 114.636719 9.101562 Z M 114.636719 9.101562 "/><path style=" stroke:none;fill-rule:nonzero;fill:#fffefe;fill-opacity:1;" d="M 89.011719 5.308594 C 89.121094 5.308594 89.226562 5.308594 89.335938 5.308594 C 89.5625 5.308594 89.789062 5.308594 90.015625 5.3125 C 90.363281 5.3125 90.710938 5.3125 91.058594 5.308594 C 91.28125 5.308594 91.5 5.308594 91.71875 5.308594 C 91.824219 5.308594 91.925781 5.308594 92.035156 5.308594 C 92.769531 5.3125 92.769531 5.3125 93.0625 5.460938 C 93.066406 7.289062 93.070312 9.117188 93.070312 10.945312 C 93.070312 11.796875 93.074219 12.644531 93.074219 13.492188 C 93.074219 14.3125 93.074219 15.128906 93.078125 15.949219 C 93.078125 16.261719 93.078125 16.574219 93.078125 16.890625 C 93.078125 17.324219 93.078125 17.761719 93.078125 18.199219 C 93.078125 18.328125 93.078125 18.460938 93.078125 18.597656 C 93.078125 18.714844 93.078125 18.832031 93.078125 18.953125 C 93.078125 19.058594 93.078125 19.160156 93.078125 19.269531 C 93.0625 19.503906 93.0625 19.503906 92.933594 19.636719 C 92.554688 19.648438 92.179688 19.65625 91.800781 19.652344 C 91.6875 19.652344 91.574219 19.652344 91.457031 19.652344 C 91.214844 19.652344 90.976562 19.652344 90.734375 19.652344 C 90.367188 19.652344 90 19.652344 89.628906 19.652344 C 89.394531 19.652344 89.164062 19.652344 88.929688 19.652344 C 88.820312 19.652344 88.707031 19.652344 88.59375 19.65625 C 87.8125 19.652344 87.8125 19.652344 87.667969 19.503906 C 87.65625 19.320312 87.652344 19.136719 87.652344 18.953125 C 87.652344 18.835938 87.652344 18.71875 87.652344 18.597656 C 87.652344 18.464844 87.652344 18.332031 87.652344 18.199219 C 87.652344 18.0625 87.652344 17.925781 87.652344 17.785156 C 87.652344 17.328125 87.652344 16.875 87.65625 16.417969 C 87.65625 16.105469 87.65625 15.789062 87.65625 15.472656 C 87.65625 14.644531 87.65625 13.8125 87.660156 12.984375 C 87.660156 12.136719 87.660156 11.292969 87.660156 10.445312 C 87.664062 8.785156 87.664062 7.121094 87.667969 5.460938 C 88.089844 5.25 88.550781 5.308594 89.011719 5.308594 Z M 89.011719 5.308594 "/><path style=" stroke:none;fill-rule:nonzero;fill:#fffefe;fill-opacity:1;" d="M 49.605469 5.292969 C 49.707031 5.296875 49.8125 5.296875 49.921875 5.296875 C 50.027344 5.296875 50.136719 5.296875 50.246094 5.296875 C 50.472656 5.296875 50.699219 5.300781 50.925781 5.300781 C 51.273438 5.304688 51.621094 5.304688 51.96875 5.304688 C 52.1875 5.304688 52.40625 5.304688 52.628906 5.304688 C 52.785156 5.304688 52.785156 5.304688 52.945312 5.304688 C 53.679688 5.3125 53.679688 5.3125 53.972656 5.460938 C 53.976562 7.289062 53.976562 9.117188 53.980469 10.945312 C 53.980469 11.796875 53.980469 12.644531 53.980469 13.492188 C 53.984375 14.3125 53.984375 15.128906 53.984375 15.949219 C 53.984375 16.261719 53.984375 16.574219 53.984375 16.890625 C 53.988281 17.324219 53.988281 17.761719 53.988281 18.199219 C 53.988281 18.328125 53.988281 18.460938 53.988281 18.597656 C 53.988281 18.714844 53.988281 18.832031 53.988281 18.953125 C 53.988281 19.058594 53.988281 19.160156 53.988281 19.269531 C 53.972656 19.503906 53.972656 19.503906 53.839844 19.636719 C 53.464844 19.648438 53.085938 19.65625 52.710938 19.652344 C 52.597656 19.652344 52.484375 19.652344 52.367188 19.652344 C 52.125 19.652344 51.886719 19.652344 51.644531 19.652344 C 51.277344 19.652344 50.90625 19.652344 50.539062 19.652344 C 50.304688 19.652344 50.070312 19.652344 49.839844 19.652344 C 49.726562 19.652344 49.617188 19.652344 49.5 19.65625 C 48.722656 19.652344 48.722656 19.652344 48.574219 19.503906 C 48.5625 19.324219 48.558594 19.140625 48.558594 18.960938 C 48.558594 18.84375 48.558594 18.726562 48.554688 18.605469 C 48.554688 18.414062 48.554688 18.414062 48.554688 18.214844 C 48.554688 18.078125 48.554688 17.945312 48.554688 17.804688 C 48.554688 17.355469 48.554688 16.90625 48.554688 16.457031 C 48.554688 16.144531 48.554688 15.835938 48.550781 15.523438 C 48.550781 14.871094 48.550781 14.21875 48.550781 13.566406 C 48.550781 12.726562 48.550781 11.886719 48.546875 11.046875 C 48.546875 10.40625 48.546875 9.761719 48.546875 9.121094 C 48.546875 8.8125 48.542969 8.503906 48.542969 8.195312 C 48.542969 7.761719 48.542969 7.328125 48.542969 6.898438 C 48.542969 6.769531 48.542969 6.640625 48.542969 6.507812 C 48.542969 6.390625 48.542969 6.273438 48.542969 6.152344 C 48.542969 6.050781 48.542969 5.949219 48.542969 5.84375 C 48.625 5.21875 49.089844 5.296875 49.605469 5.292969 Z M 49.605469 5.292969 "/><path style=" stroke:none;fill-rule:nonzero;fill:#fffefe;fill-opacity:1;" d="M 147.210938 5.285156 C 147.332031 5.289062 147.453125 5.289062 147.578125 5.289062 C 149.320312 5.320312 150.867188 5.851562 152.160156 7.050781 C 152.101562 7.71875 151.804688 8.027344 151.371094 8.507812 C 150.9375 8.429688 150.707031 8.285156 150.375 7.996094 C 149.367188 7.222656 148.289062 7.148438 147.0625 7.132812 C 146.957031 7.132812 146.851562 7.128906 146.742188 7.128906 C 145.863281 7.136719 145.246094 7.3125 144.550781 7.886719 C 144.042969 8.515625 143.964844 9.046875 144.03125 9.828125 C 144.191406 10.253906 144.445312 10.46875 144.789062 10.761719 C 145.230469 10.957031 145.230469 10.957031 145.730469 11.089844 C 145.863281 11.132812 145.863281 11.132812 146.003906 11.171875 C 146.617188 11.351562 147.238281 11.511719 147.859375 11.671875 C 151.355469 12.570312 151.355469 12.570312 152.316406 13.957031 C 152.621094 14.515625 152.636719 15.027344 152.621094 15.652344 C 152.625 15.804688 152.625 15.804688 152.628906 15.957031 C 152.621094 16.992188 152.207031 17.828125 151.503906 18.574219 C 149.949219 19.941406 147.941406 20.027344 145.976562 19.902344 C 144.179688 19.664062 142.667969 19.019531 141.238281 17.914062 C 141.308594 17.4375 141.414062 17.128906 141.707031 16.746094 C 141.765625 16.667969 141.824219 16.585938 141.886719 16.503906 C 141.933594 16.445312 141.980469 16.386719 142.027344 16.324219 C 142.507812 16.410156 142.828125 16.621094 143.226562 16.894531 C 144.847656 17.957031 146.582031 18.304688 148.488281 17.976562 C 149.261719 17.761719 149.777344 17.457031 150.292969 16.828125 C 150.519531 16.296875 150.550781 15.835938 150.449219 15.265625 C 149.933594 14.328125 148.941406 13.988281 147.957031 13.691406 C 147.566406 13.589844 147.175781 13.5 146.78125 13.410156 C 143.074219 12.523438 143.074219 12.523438 142.054688 11.070312 C 141.636719 10.25 141.691406 9.269531 141.921875 8.402344 C 142.347656 7.207031 143.015625 6.425781 144.117188 5.824219 C 145.117188 5.371094 146.125 5.28125 147.210938 5.285156 Z M 147.210938 5.285156 "/><path style=" stroke:none;fill-rule:nonzero;fill:#fffefe;fill-opacity:1;" d="M 134.023438 5.296875 C 134.140625 5.292969 134.257812 5.289062 134.378906 5.285156 C 136.148438 5.277344 137.582031 5.96875 138.867188 7.167969 C 139.339844 7.671875 139.789062 8.191406 139.789062 8.90625 C 139.539062 9 139.285156 9.089844 139.03125 9.179688 C 138.890625 9.230469 138.75 9.28125 138.605469 9.332031 C 138.042969 9.476562 138.042969 9.476562 137.683594 9.300781 C 137.449219 9.050781 137.449219 9.050781 137.207031 8.738281 C 136.519531 7.929688 135.703125 7.476562 134.65625 7.316406 C 133.171875 7.199219 131.984375 7.535156 130.839844 8.507812 C 129.527344 9.914062 129.324219 11.320312 129.355469 13.175781 C 129.410156 14.601562 130.078125 15.824219 131.070312 16.820312 C 132.269531 17.65625 133.40625 18.09375 134.890625 17.855469 C 136.074219 17.535156 136.960938 16.921875 137.683594 15.925781 C 137.726562 15.839844 137.769531 15.75 137.816406 15.660156 C 138.492188 15.746094 139.128906 15.882812 139.789062 16.058594 C 139.871094 16.613281 139.785156 16.925781 139.46875 17.367188 C 138.308594 18.789062 136.902344 19.710938 135.050781 19.902344 C 133.007812 20.019531 131.164062 19.710938 129.574219 18.347656 C 128.1875 17.101562 127.265625 15.550781 127.023438 13.675781 C 126.902344 11.378906 127.234375 9.324219 128.78125 7.53125 C 130.269531 5.976562 131.894531 5.308594 134.023438 5.296875 Z M 134.023438 5.296875 "/><path style=" stroke:none;fill-rule:nonzero;fill:#fffefe;fill-opacity:1;" d="M 87.667969 0.0273438 C 89.449219 0.0273438 91.230469 0.0273438 93.0625 0.0273438 C 93.066406 0.75 93.070312 1.464844 93.070312 2.207031 C 93.074219 2.433594 93.074219 2.660156 93.074219 2.894531 C 93.074219 3.074219 93.078125 3.253906 93.078125 3.429688 C 93.078125 3.523438 93.078125 3.621094 93.078125 3.714844 C 93.078125 3.945312 93.070312 4.171875 93.0625 4.402344 C 92.933594 4.535156 92.933594 4.535156 92.433594 4.546875 C 92.210938 4.546875 91.988281 4.546875 91.765625 4.546875 C 91.59375 4.546875 91.59375 4.546875 91.414062 4.546875 C 91.039062 4.546875 90.664062 4.542969 90.292969 4.542969 C 90.039062 4.539062 89.785156 4.539062 89.53125 4.539062 C 88.910156 4.539062 88.289062 4.535156 87.667969 4.535156 C 87.667969 3.046875 87.667969 1.558594 87.667969 0.0273438 Z M 87.667969 0.0273438 "/><path style=" stroke:none;fill-rule:nonzero;fill:#fffefe;fill-opacity:1;" d="M 49.207031 0.015625 C 49.425781 0.015625 49.648438 0.015625 49.871094 0.015625 C 50.046875 0.015625 50.046875 0.015625 50.226562 0.015625 C 50.601562 0.015625 50.972656 0.0195312 51.347656 0.0195312 C 51.601562 0.0195312 51.855469 0.0234375 52.105469 0.0234375 C 52.730469 0.0234375 53.351562 0.0273438 53.972656 0.0273438 C 53.976562 0.648438 53.976562 1.269531 53.980469 1.890625 C 53.980469 2.101562 53.980469 2.3125 53.980469 2.523438 C 53.984375 2.824219 53.984375 3.128906 53.984375 3.429688 C 53.984375 3.527344 53.988281 3.621094 53.988281 3.71875 C 53.988281 3.945312 53.980469 4.171875 53.972656 4.402344 C 53.839844 4.535156 53.839844 4.535156 53.355469 4.546875 C 53.136719 4.546875 52.921875 4.546875 52.707031 4.546875 C 52.535156 4.546875 52.535156 4.546875 52.359375 4.546875 C 51.996094 4.546875 51.628906 4.542969 51.265625 4.542969 C 51.019531 4.539062 50.773438 4.539062 50.527344 4.539062 C 49.921875 4.539062 49.3125 4.535156 48.707031 4.535156 C 48.511719 4.140625 48.558594 3.785156 48.558594 3.347656 C 48.558594 3.257812 48.558594 3.167969 48.558594 3.074219 C 48.558594 2.882812 48.558594 2.691406 48.558594 2.5 C 48.558594 2.207031 48.558594 1.914062 48.558594 1.621094 C 48.558594 1.433594 48.558594 1.25 48.558594 1.0625 C 48.558594 0.894531 48.558594 0.722656 48.558594 0.550781 C 48.585938 -0.03125 48.605469 0.03125 49.207031 0.015625 Z M 49.207031 0.015625 "/></g></svg>